<?xml version="1.0" standalone="no"?>
<!DOCTYPE svg PUBLIC "-//W3C//DTD SVG 20010904//EN"
 "http://www.w3.org/TR/2001/REC-SVG-20010904/DTD/svg10.dtd">
<svg version="1.0" xmlns="http://www.w3.org/2000/svg"
 width="700.000000pt" height="700.000000pt" viewBox="0 0 700.000000 700.000000"
 preserveAspectRatio="xMidYMid meet">
<metadata>
Created by potrace 1.11, written by Peter Selinger 2001-2013
</metadata>
<g transform="translate(0.000000,700.000000) scale(0.100000,-0.100000)"
fill="#000000" stroke="none">
<path d="M2100 3500 l0 -3500 525 0 525 0 0 3500 0 3500 -525 0 -525 0 0
-3500z"/>
<path d="M5600 2800 l0 -2800 525 0 525 0 0 2800 0 2800 -525 0 -525 0 0
-2800z"/>
<path d="M3850 2100 l0 -2100 525 0 525 0 0 2100 0 2100 -525 0 -525 0 0
-2100z"/>
<path d="M350 1750 l0 -1750 525 0 525 0 0 1750 0 1750 -525 0 -525 0 0 -1750z"/>
</g>
</svg>
